<?xml version="1.0" encoding="UTF-8"?>
<svg id="Layer_1" data-name="Layer 1" xmlns="http://www.w3.org/2000/svg" viewBox="0 0 470.9 178.9">
  <defs>
    <style>
      .cls-1, .cls-2 {
        fill: #fff;
        stroke: #fff;
        stroke-miterlimit: 10;
      }

      .cls-2 {
        stroke-width: .85px;
      }
    </style>
  </defs>
  <g>
    <g>
      <path class="cls-2" d="M76.01,53.57v50.04h-9.23v-50.04h-15.23v-7.66h39.7v7.66h-15.23Z"/>
      <path class="cls-2" d="M110.17,83.2v20.4h-9.23v-57.7h23.08c4.06,0,7.26.62,9.6,1.85,2.34,1.23,4.02,3.26,5.03,6.09,1.01,2.83,1.52,6.68,1.52,11.54,0,6.34-1.14,10.89-3.42,13.66-2.28,2.77-6.06,4.15-11.36,4.15h-15.23ZM110.17,75.91h13.94c2.4,0,4.06-.28,4.99-.83.92-.55,1.38-1.57,1.38-3.05v-14.59c0-1.48-.46-2.49-1.38-3.05-.92-.55-2.58-.83-4.99-.83h-13.94v22.34ZM130.94,78.86l12,24.74h-10.06l-10.89-23.08,8.96-1.66Z"/>
      <path class="cls-2" d="M147.56,103.6l17.08-57.7h13.94l17.08,57.7h-9.23l-14.4-49.21h-.83l-14.4,49.21h-9.23ZM156.06,90.68v-7.29h31.3v7.29h-31.3Z"/>
      <path class="cls-2" d="M195.2,45.9h9.23l13.48,49.21h.83l13.48-49.21h9.23l-16.16,57.7h-13.94l-16.16-57.7Z"/>
      <path class="cls-2" d="M259.91,78.4v17.54h25.39v7.66h-34.62v-57.7h34.34l-1.11,7.66h-24v17.54h21.88v7.29h-21.88Z"/>
      <path class="cls-2" d="M298.23,103.6v-57.7h9.23v50.04h21.23v7.66h-30.47Z"/>
    </g>
    <path class="cls-2" d="M337.61,74.4c0-1.48.38-2.37,1.15-2.68.77-.31,1.95-.46,3.55-.46h21.51v4.62c0,1.48-.39,2.37-1.15,2.68-.77.31-1.96.46-3.55.46h-21.51v-4.62Z"/>
  </g>
  <path class="cls-1" d="M376.42,99.25l16.43-25.2,5.45,6-12.09,19.2h-9.79ZM408.45,99.25l-31.57-46.16h9.88l31.57,46.16h-9.88ZM401.35,78.29l-5.35-6,12.09-19.2h9.79l-16.53,25.2Z"/>
</svg>